<svg width="582" height="460" viewBox="0 0 582 460" fill="none" xmlns="http://www.w3.org/2000/svg">
<g clip-path="url(#clip0)">
<path d="M83.88 291.744C104.071 290.139 124.387 292.096 143.899 297.524C151.421 299.603 158.985 302.254 166.787 302.03C176.364 301.755 185.212 297.233 194.04 293.512C207.96 287.638 223.025 283.517 238.074 284.884C265.768 287.394 290.134 308.002 317.927 307.051C341.747 306.24 363.126 289.551 386.951 290.045C403.118 290.378 418.105 298.631 434.137 300.747C454.716 303.46 475.232 295.934 495.94 295.029C513.91 294.256 531.747 298.438 547.496 307.119C558.888 313.424 570.135 325.721 565.651 337.935C564.282 341.662 561.515 344.978 561.343 348.944C560.958 357.78 572.356 361.522 578.041 368.289C585.038 376.605 582.203 390.311 573.979 397.427C565.755 404.542 553.863 406.018 543.127 404.235C532.39 402.453 522.376 397.842 512.212 393.965C492.883 386.594 472.669 381.788 452.089 379.672C437.856 378.211 423.385 378.05 409.329 380.711C398.806 382.697 388.626 386.236 378.118 388.18C325.548 397.884 273.592 367.218 220.153 367.426C205.135 367.489 190.258 369.994 175.344 371.771C129.115 377.276 82.3715 375.742 35.8356 374.204C31.1279 374.048 26.0353 373.752 22.4148 370.737C15.6524 365.093 18.2533 354.152 22.4148 346.397C29.2397 333.751 38.5406 322.852 45.5007 310.383C53.0538 296.932 69.4397 292.893 83.88 291.744Z" fill="#E84646"/>
<g opacity="0.05">
<path opacity="0.05" d="M173.128 96.7995C173.316 96.4865 173.405 96.1242 173.383 95.7599C173.27 96.099 173.185 96.4466 173.128 96.7995V96.7995Z" fill="url(#paint0_linear)"/>
</g>
<g opacity="0.05">
<path opacity="0.05" d="M173.128 96.2693C173.316 95.9563 173.405 95.594 173.383 95.2298C173.27 95.5688 173.185 95.9165 173.128 96.2693V96.2693Z" fill="url(#paint1_linear)"/>
</g>
<path d="M406.291 341.506C405.09 342.109 395.206 340.669 386.852 339.302C391.352 338.263 394.655 336.911 396.215 335.144C405.189 324.832 365.649 330.804 353.149 332.909L343.089 330.898L331.822 328.299C324.05 317.384 312.268 295.253 306.567 284.281C308.46 283.855 309.615 283.652 309.615 283.652C309.526 283.309 309.433 282.976 309.339 282.638L309.615 282.586C298.987 242.243 280.927 248.08 280.927 248.08C278.768 248.08 275.595 249.01 271.839 250.538C270.605 246.255 269.04 242.074 267.157 238.033L266.72 237.087C267.984 237.321 268.723 237.466 268.723 237.466C268.723 237.466 268.619 237.186 268.416 236.671L268.603 236.707L269.046 236.791H269.139L269.321 236.827L269.784 236.915C269.784 236.915 255.219 197.362 224.19 173.567C215.977 167.189 206.15 163.217 195.809 162.096C195.257 162.039 194.727 161.998 194.201 161.961L193.728 161.915C193.327 161.915 192.932 161.873 192.542 161.863H191.709C184.671 161.759 179.537 163.5 173.607 166.54C172.525 167.06 171.422 167.647 170.278 168.266C169.391 168.159 168.51 168.003 167.64 167.798C167.165 167.684 166.701 167.554 166.246 167.408C173.268 164.223 178.779 158.438 181.616 151.273C184.453 144.108 184.396 136.122 181.457 128.998C183.56 125.287 186.782 122.333 190.664 120.557C191.151 120.393 191.586 120.104 191.928 119.721C192.204 119.24 192.329 118.688 192.287 118.135V118.089C192.287 117.985 192.287 117.886 192.287 117.787C192.287 117.688 192.287 117.662 192.287 117.605V117.558C192.324 115.069 191.451 112.652 189.833 110.759C188.215 108.865 185.962 107.626 183.496 107.273C182.026 107.058 180.593 106.644 179.235 106.041C175.943 104.549 173.248 101.207 173.071 97.7246C173.078 97.4147 173.105 97.1055 173.154 96.7994L173.076 96.919C173.076 96.7007 173.123 96.4876 173.154 96.2693C172.416 97.5271 170.241 97.9845 168.957 97.0021C167.807 96.1237 167.339 94.6788 167.292 93.2027C167.307 92.8053 167.348 92.4094 167.417 92.0177C167.661 90.9249 167.795 89.8106 167.817 88.6912C167.869 87.5062 167.646 86.4303 166.688 85.8066C164.66 88.3014 161.372 89.4916 158.163 89.7463C154.953 90.001 151.744 89.4345 148.555 89.0135C140.679 87.974 131.826 88.0987 125.885 93.3742C122.02 96.8046 120.075 101.846 118.264 106.685C115.705 113.52 113.156 120.937 113.234 128.063C113.163 131.394 113.795 134.702 115.091 137.772C117.578 143.489 122.624 148.011 124.163 154.061C124.517 155.454 124.683 156.925 125.375 158.188C126.775 160.745 130.057 161.769 132.944 161.374C134.046 162.469 135.233 163.477 136.492 164.389C136.466 164.726 136.434 165.059 136.403 165.392C136.206 167.471 135.925 169.55 135.54 171.525C135.306 171.187 134.978 171.374 134.021 171.374H133.688H133.605L133.22 171.421L132.798 171.494H132.71L132.221 171.598L131.701 171.728H131.628L131.03 171.889L130.379 172.076H130.348C128.496 172.632 126.239 173.443 123.862 174.357C122.923 168.473 120.2 163.017 116.059 158.728C116.887 157.591 117.561 156.348 118.061 155.033C118.863 152.871 118.035 151.395 116.641 150.111C115.554 148.921 113.91 147.943 112.454 146.862C105.948 142.043 98.5531 138.555 90.6945 136.597C88.1508 135.968 85.5238 135.5 82.9229 135.786C80.452 136.057 78.1008 136.992 75.8484 138.042C72.2775 139.708 68.859 141.681 65.6319 143.941C63.4627 145.459 61.3352 147.133 58.8279 148.001C55.0721 149.3 50.7286 148.697 47.2641 150.651C42.416 153.39 41.3288 159.955 42.0623 165.475C42.7957 170.995 44.736 176.494 43.8673 181.993C42.5617 190.22 35.4247 196.063 28.8599 201.224C26.7792 202.84 24.5788 204.742 24.2615 207.346C24.0638 208.973 24.662 210.579 25.1614 212.144C27.9137 220.729 27.7399 229.983 24.6672 238.459C21.567 246.926 15.4566 253.956 7.5011 258.21C4.48402 259.769 0.827111 261.391 0.119657 264.717C-0.353712 266.957 0.702264 268.927 2.39807 270.507C4.07894 272.181 6.11435 273.456 8.3542 274.239C11.6588 275.459 15.0755 276.35 18.5551 276.9C21.6138 277.384 24.8909 277.571 27.6843 276.23C30.9355 274.67 32.9174 271.36 34.634 268.189C39.0244 260.091 44.0702 254.707 48.2421 248.184C48.7935 250.564 49.2356 252.222 49.2825 252.316C45.8232 255.434 44.2054 260.549 46.0989 268.787C53.5376 301.168 63.0986 309.13 63.0986 309.13C63.3646 307.38 64.04 305.717 65.0701 304.276L65.4915 304.796C70.0275 310.3 75.2398 316.033 79.5729 319.219C84.5263 322.867 89.005 327.119 92.9053 331.875C93.1568 332.186 93.3347 332.551 93.4257 332.941C93.5167 333.33 93.5186 333.736 93.4311 334.126C93.3436 334.517 93.169 334.883 92.9204 335.197C92.6717 335.511 92.3554 335.765 91.995 335.939C85.1857 339.255 70.2824 347.769 88.0467 351.574C105.811 355.378 120.298 345.337 125.391 341.111C125.933 340.666 126.279 340.025 126.352 339.328C126.425 338.63 126.22 337.932 125.781 337.384L109.603 317.181L107.611 314.723C108.683 315.482 109.77 316.282 110.893 317.098L108.006 312.488L117.146 313.439C117.411 313.995 117.666 314.541 117.947 315.061C119.768 318.798 121.698 321.719 123.711 323.34C123.529 327.097 124.432 330.826 126.312 334.084C133.594 347.296 173.763 347.213 185.009 346.927C186.057 347.093 187.113 347.195 188.172 347.234C189.927 347.293 191.684 347.178 193.416 346.891L193.78 346.828C195.969 346.509 198.046 345.657 199.83 344.349L215.815 341.153L216.174 341.241C225.194 343.096 242.36 346.069 252.218 344.177C261.664 342.364 267.131 345.513 269.649 347.686C269.378 348.656 269.057 349.612 268.687 350.55H268.827C268.198 351.937 265.872 358.653 275.329 366.21C281.509 371.148 323.597 372.447 338.022 369.396C348.426 367.203 333.647 360.903 331.645 360.903C327.114 360.903 313.048 351.376 311.586 350.378C311.347 350.066 310.796 349.339 310.026 348.299C319.805 349.604 337.023 351.667 340.41 350.539C345.19 348.949 366.419 351.579 366.419 351.579C366.419 351.579 395.107 357.951 408.924 353.705C422.74 349.458 408.414 340.446 406.291 341.506Z" fill="url(#paint2_linear)"/>
<g opacity="0.05">
<path opacity="0.05" d="M218.749 229.483C217.074 230.2 213.089 233.948 207.924 239.332C206.28 228.532 205.219 218.791 205.905 214.737C205.964 214.132 206.173 213.552 206.514 213.048C209.635 212.835 215.919 220.585 220.949 227.601C219.555 228.719 218.749 229.483 218.749 229.483Z" fill="url(#paint3_linear)"/>
</g>
<path d="M301.219 276.781C301.219 276.781 328.269 330.316 335.031 332.395C341.794 334.474 346.475 331.355 346.475 331.355C346.475 331.355 402.655 320.96 392.252 332.914C381.848 344.869 290.815 337.592 290.815 337.592L267.927 286.136L301.219 276.781Z" fill="#EF91A3"/>
<path opacity="0.1" d="M223.711 277.82C223.711 277.82 267.407 248.714 279.371 248.714C279.371 248.714 297.058 242.996 307.461 282.498C307.461 282.498 271.568 288.735 272.089 305.887L265.326 291.334L236.196 323.559L200.823 299.65L223.711 277.82Z" fill="black"/>
<path d="M223.711 276.781C223.711 276.781 267.407 247.674 279.371 247.674C279.371 247.674 297.058 241.957 307.461 281.458C307.461 281.458 271.568 287.696 272.089 304.848L265.326 290.294L236.196 322.519L200.823 298.61L223.711 276.781Z" fill="#5D526E"/>
<path d="M271.568 262.228C268.968 274.702 255.443 276.781 255.443 276.781L236.196 264.826C236.196 264.826 233.48 246.921 231.186 236.006C230.307 231.811 229.491 228.646 228.913 227.924C226.832 225.325 259.604 225.845 259.604 225.845C261.904 229.729 263.998 233.731 265.878 237.835C269.446 245.626 272.957 255.554 271.568 262.228Z" fill="#EF91A3"/>
<path d="M188.339 168.152L177.415 220.127L150.885 213.37C150.885 213.37 126.436 194.139 133.719 182.185C136.102 178.276 137.314 172.59 137.881 166.712C139.02 154.596 137.36 141.644 137.36 141.644C137.36 141.644 166.491 133.848 160.769 155.158C158.418 163.91 162.647 167.663 168.447 169.051C176.775 171.031 188.339 168.152 188.339 168.152Z" fill="#EF91A3"/>
<path opacity="0.1" d="M168.447 169.04C164.309 171.193 159.712 172.314 155.047 172.31C148.622 172.31 142.437 168.292 137.62 164.773C138.287 157.073 138.2 149.327 137.36 141.644C137.36 141.644 166.491 133.848 160.769 155.158C158.418 163.9 162.647 167.632 168.447 169.04Z" fill="black"/>
<path d="M155.047 171.26C171.135 171.26 184.177 158.228 184.177 142.153C184.177 126.078 171.135 113.047 155.047 113.047C138.958 113.047 125.916 126.078 125.916 142.153C125.916 158.228 138.958 171.26 155.047 171.26Z" fill="#EF91A3"/>
<path opacity="0.1" d="M152.867 202.871L160.769 213.89L165.263 197.606C166.999 191.092 167.915 184.388 167.989 177.648C168.027 174.789 168.958 172.014 170.652 169.711C178.757 165.293 184.775 162.954 194.992 163.994C205.113 165.097 214.729 168.989 222.765 175.236C253.128 198.547 267.407 237.279 267.407 237.279C267.407 237.279 225.792 228.963 227.873 238.319C227.873 238.319 209.666 209.212 205.505 213.89C201.343 218.568 214.348 280.419 214.348 280.419L129.037 286.656L106.669 227.404L107.71 183.225C107.71 183.225 129.818 173.089 134.499 173.089C136.138 173.089 135.888 172.518 136.58 175.168C139.249 185.366 146.719 194.295 152.867 202.871Z" fill="black"/>
<path opacity="0.1" d="M265.878 237.825C258.642 236.52 238.146 233.189 231.186 235.995C230.307 231.801 229.491 228.636 228.913 227.913C226.832 225.314 259.604 225.834 259.604 225.834C261.904 229.718 263.998 233.721 265.878 237.825V237.825Z" fill="black"/>
<path d="M153.908 202.352L161.809 213.37L166.304 197.086C168.04 190.573 168.955 183.868 169.029 177.128C169.067 174.269 169.998 171.494 171.693 169.191C179.797 164.773 185.816 162.434 196.032 163.474C206.154 164.577 215.769 168.469 223.805 174.716C254.168 198.027 268.447 236.759 268.447 236.759C268.447 236.759 226.832 228.443 228.913 237.799C228.913 237.799 210.707 208.693 206.545 213.37C202.384 218.048 215.388 279.899 215.388 279.899L130.078 286.136L107.71 226.884L108.75 182.705C108.75 182.705 130.858 172.57 135.54 172.57C137.178 172.57 136.929 171.998 137.62 174.649C140.289 184.846 147.759 193.776 153.908 202.352Z" fill="#DFECFB"/>
<path opacity="0.1" d="M134.822 162.72C131.898 163.24 128.496 162.258 127.071 159.654C126.395 158.417 126.228 156.977 125.88 155.615C124.371 149.695 119.43 145.272 116.995 139.669C112.896 130.225 116.475 119.398 120.116 109.752C121.89 105.017 123.794 100.079 127.576 96.7215C133.391 91.5551 142.058 91.4356 149.772 92.4491C152.893 92.8597 156.014 93.4158 159.182 93.1663C162.35 92.9169 165.544 91.7526 167.505 89.3098C169.18 90.396 168.546 92.9065 168.218 94.8711C167.89 96.8358 168.161 99.0812 169.726 100.277C171.292 101.472 174.216 100.485 174.086 98.525C172.676 102.683 175.787 107.288 179.808 109.107C181.133 109.697 182.533 110.103 183.969 110.313C186.383 110.66 188.587 111.874 190.171 113.726C191.754 115.579 192.608 117.945 192.573 120.381V120.428C192.616 120.97 192.495 121.514 192.224 121.987C191.89 122.363 191.463 122.646 190.986 122.808C186.952 124.659 183.655 127.809 181.623 131.753C180.546 133.858 179.735 136.296 177.748 137.58C175.303 139.139 172.109 138.37 169.206 138.619C166.805 138.848 164.528 139.787 162.664 141.317C160.801 142.846 159.436 144.897 158.745 147.205C158.069 149.612 158.163 152.237 156.664 154.373C156.344 154.856 155.925 155.266 155.435 155.575C154.944 155.884 154.393 156.086 153.819 156.166C151.561 156.41 150.526 154.388 148.909 153.344C145.106 150.89 142.666 154.129 141.475 157.185C140.149 160.496 139.202 161.915 134.822 162.72Z" fill="black"/>
<path d="M134.822 162.2C131.898 162.72 128.496 161.738 127.071 159.134C126.395 157.897 126.228 156.457 125.88 155.095C124.371 149.175 119.43 144.752 116.995 139.149C112.896 129.705 116.475 118.879 120.116 109.232C121.89 104.497 123.794 99.5593 127.576 96.2017C133.391 91.0353 142.058 90.9158 149.772 91.9293C152.893 92.3399 156.014 92.8961 159.182 92.6466C162.35 92.3971 165.544 91.2328 167.505 88.79C169.18 89.8763 168.546 92.3867 168.218 94.3514C167.89 96.316 168.161 98.5614 169.726 99.7568C171.292 100.952 174.216 99.9647 174.086 98.0053C172.676 102.163 175.787 106.768 179.808 108.587C181.133 109.177 182.533 109.583 183.969 109.793C186.383 110.14 188.587 111.354 190.171 113.207C191.754 115.059 192.608 117.425 192.573 119.861V119.908C192.616 120.451 192.495 120.994 192.224 121.467C191.89 121.843 191.463 122.126 190.986 122.288C186.952 124.139 183.655 127.289 181.623 131.233C180.546 133.338 179.735 135.776 177.748 137.06C175.303 138.619 172.109 137.85 169.206 138.099C166.805 138.328 164.528 139.268 162.664 140.797C160.801 142.327 159.436 144.377 158.745 146.686C158.069 149.092 158.163 151.717 156.664 153.853C156.344 154.336 155.925 154.746 155.435 155.055C154.944 155.364 154.393 155.566 153.819 155.646C151.561 155.891 150.526 153.869 148.909 152.824C145.106 150.371 142.666 153.609 141.475 156.665C140.149 159.976 139.202 161.395 134.822 162.2Z" fill="#572142"/>
<g opacity="0.05">
<path opacity="0.05" d="M217.563 174.207C245.653 195.756 259.968 230.502 261.961 235.595C265.836 236.229 268.447 236.749 268.447 236.749C268.447 236.749 254.168 198.022 223.805 174.721C215.77 168.473 206.154 164.579 196.032 163.474C194.617 163.328 193.286 163.255 192.011 163.235C201.326 164.654 210.122 168.431 217.563 174.207V174.207Z" fill="black"/>
<path opacity="0.05" d="M131.378 174.118C134.047 184.326 141.511 193.256 147.665 201.832L155.567 212.851L157.2 206.946L153.913 202.362C147.759 193.786 140.294 184.857 137.626 174.649C136.934 171.998 137.184 172.57 135.545 172.57C134.07 172.706 132.619 173.03 131.227 173.536L131.378 174.118Z" fill="black"/>
<path opacity="0.05" d="M226.146 233.527C227.836 236.063 228.913 237.789 228.913 237.789C228.003 233.708 235.416 232.991 244.056 233.475C237.278 232.757 230.24 232.451 226.146 233.527Z" fill="black"/>
<path opacity="0.05" d="M205.937 215.039C203.476 212.726 201.401 211.608 200.303 212.845C196.141 217.523 209.146 279.374 209.146 279.374L129.745 285.18L130.104 286.131L215.414 279.894C215.414 279.894 204.069 226.037 205.937 215.039Z" fill="black"/>
</g>
<path d="M127.108 338.772C122.129 342.889 107.996 352.753 90.5436 349.016C73.0914 345.279 87.7398 336.958 94.4086 333.71C94.7626 333.539 95.0734 333.291 95.3176 332.984C95.5618 332.676 95.7332 332.317 95.8188 331.934C95.9044 331.551 95.902 331.154 95.8118 330.772C95.7217 330.389 95.546 330.033 95.2981 329.728C91.473 325.065 87.0798 320.897 82.2206 317.322C77.9811 314.203 72.8573 308.59 68.4357 303.2C66.1001 300.378 63.9569 297.623 62.1935 295.31C61.8574 294.877 61.6669 294.349 61.6493 293.801C61.6317 293.253 61.7878 292.714 62.0954 292.26C62.4029 291.807 62.8462 291.461 63.3618 291.275C63.8773 291.088 64.4389 291.068 64.9661 291.22L99.0695 300.471C99.6034 300.616 100.077 300.927 100.422 301.36L111.632 315.357L127.472 335.139C127.901 335.671 128.104 336.35 128.036 337.03C127.968 337.71 127.634 338.336 127.108 338.772Z" fill="#EF91A3"/>
<path opacity="0.1" d="M111.648 315.341C83.1882 294.603 72.4463 298.309 68.4357 303.184C66.1001 300.362 63.9569 297.607 62.1935 295.294C61.8574 294.861 61.6669 294.333 61.6493 293.785C61.6317 293.238 61.7878 292.698 62.0954 292.245C62.4029 291.791 62.8462 291.446 63.3618 291.259C63.8773 291.072 64.4389 291.053 64.9661 291.204L99.0695 300.456C99.6035 300.601 100.077 300.912 100.422 301.344L111.648 315.341Z" fill="black"/>
<path d="M87.9427 251.313C87.9427 251.313 42.1663 236.24 49.4489 267.945C56.7315 299.65 66.0949 307.446 66.0949 307.446C66.0949 307.446 68.6958 282.498 112.912 315.243L97.306 290.294L115.513 267.425L87.9427 251.313Z" fill="#5D526E"/>
<path opacity="0.1" d="M77.0188 222.726C77.0188 222.726 72.8573 244.556 87.9427 271.063C99.907 292.077 85.7059 301.656 79.3128 304.728C78.4745 305.13 77.5321 305.264 76.6149 305.11C75.6976 304.957 74.8503 304.524 74.189 303.87C69.9755 299.712 61.897 289.14 66.6151 272.623L69.7362 264.307L52.57 251.832C52.57 251.832 47.9248 234.623 49.9691 230.751C52.0134 226.879 68.6958 216.489 68.6958 216.489L77.0188 222.726Z" fill="black"/>
<path d="M77.0188 221.686C77.0188 221.686 72.8573 243.516 87.9427 270.024C99.907 291.038 85.7059 300.617 79.3128 303.689C78.4745 304.091 77.5321 304.224 76.6149 304.071C75.6976 303.917 74.8503 303.484 74.189 302.831C69.9755 298.673 61.897 288.101 66.6151 271.583L69.7362 263.267L52.57 250.793C52.57 250.793 47.9248 233.584 49.9691 229.712C52.0134 225.839 68.6958 215.449 68.6958 215.449L77.0188 221.686Z" fill="#EF91A3"/>
<path d="M114.992 180.106C114.992 180.106 77.539 201.416 61.9334 215.449C46.3278 229.483 49.4489 234.161 49.4489 234.161C49.4489 234.161 64.5343 206.094 77.539 230.522C77.539 230.522 113.952 204.015 123.836 215.449C133.719 226.884 114.992 180.106 114.992 180.106Z" fill="#DFECFB"/>
<path d="M100.947 302.758L132.159 296.521L128.517 312.633L105.9 310.279L100.947 302.758Z" fill="#5D526E"/>
<path d="M155.047 234.161L154.006 245.595L116.553 239.358L105.109 232.082L87.9427 225.845C89.9674 220.27 90.2843 214.219 88.853 208.464C88.2042 205.982 87.1966 203.608 85.862 201.416C78.5793 189.462 116.553 194.659 116.553 194.659C116.141 197.354 115.95 200.078 115.981 202.804C116.059 211.489 118.519 223.729 132.159 221.686L143.603 228.443L155.047 234.161Z" fill="#FFC1CD"/>
<path d="M118.114 218.048C118.114 218.048 137.36 209.732 146.724 226.884C156.087 244.036 160.249 242.996 160.249 242.996L141.522 231.042L118.114 218.048Z" fill="#FFC1CD"/>
<path d="M134.239 304.848C134.239 304.848 119.674 316.802 127.997 331.875C136.32 346.948 188.339 344.349 188.339 344.349C188.339 344.349 155.317 331.953 163.505 290.331C163.505 290.326 139.961 297.051 134.239 304.848Z" fill="#5F5470"/>
<path d="M203.424 322.519L198.222 342.27L216.429 338.632C216.429 338.632 208.626 321.999 209.666 317.322C210.707 312.644 203.424 322.519 203.424 322.519Z" fill="#5F5470"/>
<path d="M217.989 298.61C217.989 298.61 265.326 303.288 278.331 310.565L288.214 313.683C288.214 313.683 291.856 312.644 299.659 319.401L340.233 328.756L371.444 334.993C371.444 334.993 400.055 340.191 402.135 339.151C404.216 338.112 418.261 346.948 404.736 351.106C391.211 355.264 363.121 349.027 363.121 349.027C363.121 349.027 342.314 346.428 337.632 347.987C332.95 349.547 301.219 344.869 301.219 344.869L270.008 346.948C270.008 346.948 264.806 339.151 251.281 341.75C241.632 343.606 224.825 340.711 215.992 338.876C214.28 338.524 212.712 337.67 211.489 336.423C210.265 335.176 209.443 333.592 209.125 331.875L206.004 315.243L217.989 298.61Z" fill="#FFC1CD"/>
<path opacity="0.05" d="M217.989 298.61C217.989 298.61 265.326 303.288 278.331 310.565L288.214 313.683C288.214 313.683 291.856 312.644 299.659 319.401L340.233 328.756L371.444 334.993C371.444 334.993 400.055 340.191 402.135 339.151C404.216 338.112 418.261 346.948 404.736 351.106C391.211 355.264 363.121 349.027 363.121 349.027C363.121 349.027 342.314 346.428 337.632 347.987C332.95 349.547 301.219 344.869 301.219 344.869L270.008 346.948C270.008 346.948 264.806 339.151 251.281 341.75C241.632 343.606 224.825 340.711 215.992 338.876C214.28 338.524 212.712 337.67 211.489 336.423C210.265 335.176 209.443 333.592 209.125 331.875L206.004 315.243L217.989 298.61Z" fill="black"/>
<path opacity="0.1" d="M115.981 202.793C112.307 205.951 107.891 208.127 103.147 209.117C98.4028 210.107 93.4849 209.879 88.853 208.454C88.2033 205.975 87.1957 203.604 85.862 201.416C78.5793 189.462 116.553 194.659 116.553 194.659C116.142 197.351 115.95 200.071 115.981 202.793Z" fill="black"/>
<path d="M97.3061 208.682C113.107 208.682 125.916 195.883 125.916 180.096C125.916 164.308 113.107 151.509 97.3061 151.509C81.505 151.509 68.6958 164.308 68.6958 180.096C68.6958 195.883 81.505 208.682 97.3061 208.682Z" fill="#FFC1CD"/>
<path opacity="0.1" d="M85.3418 222.206C85.3418 222.206 107.19 234.161 108.23 241.957C109.27 249.753 105.109 259.109 105.109 259.109C105.109 259.109 114.992 318.361 127.477 322.519L160.769 290.294L188.859 277.82C188.859 277.82 172.213 276.781 170.652 261.188C169.092 245.595 172.733 240.398 154.006 233.121C135.28 225.845 125.136 217.269 125.136 217.269L120.298 218.49L145.163 231.562C145.163 231.562 159.208 239.878 122.795 233.641L88.4629 221.167L85.3418 222.206Z" fill="black"/>
<path d="M84.8216 221.167C84.8216 221.167 106.669 233.121 107.71 240.917C108.75 248.714 104.589 258.069 104.589 258.069C104.589 258.069 114.472 317.322 126.957 321.48L160.249 289.255L188.339 276.781C188.339 276.781 171.693 275.741 170.132 260.148C168.572 244.556 172.213 239.358 153.486 232.082C134.759 224.805 124.616 216.229 124.616 216.229L119.778 217.45L144.643 230.522C144.643 230.522 158.688 238.838 122.275 232.601L87.9427 220.127L84.8216 221.167Z" fill="#FF808C"/>
<path opacity="0.1" d="M92.6244 225.325C92.6244 225.325 71.2967 217.528 76.4986 242.477C81.7004 267.425 108.75 310.565 108.75 310.565L172.213 288.735C172.213 288.735 191.98 273.662 186.778 272.103C181.576 270.544 154.006 280.419 154.006 280.419L116.553 286.136L107.71 261.188C107.71 261.188 116.033 255.471 113.432 248.194L113.354 247.976C109.82 238.289 102.697 230.329 93.4567 225.741L92.6244 225.325Z" fill="black"/>
<path d="M91.584 224.285C91.584 224.285 70.2563 216.489 75.4582 241.437C80.6601 266.386 107.71 309.525 107.71 309.525L171.173 287.696C171.173 287.696 190.94 272.623 185.738 271.063C180.536 269.504 152.966 279.379 152.966 279.379L115.513 285.097L106.669 260.148C106.669 260.148 114.992 254.431 112.391 247.155L112.313 246.936C108.78 237.249 101.657 229.289 92.4163 224.701L91.584 224.285Z" fill="#FFC1CD"/>
<path opacity="0.1" d="M93.5711 139.102C91.0846 138.489 88.5097 138.026 85.9608 138.307C83.5477 138.661 81.2088 139.407 79.0371 140.516C75.5408 142.146 72.1937 144.078 69.0339 146.291C66.9064 147.777 64.8256 149.409 62.3756 150.267C58.6978 151.54 54.4427 150.948 51.0563 152.866C46.307 155.547 45.2458 161.977 45.9481 167.382C46.6503 172.788 48.549 178.172 47.7167 183.557C46.4422 191.613 39.4457 197.336 33.0266 202.367C31.0031 203.926 28.8339 205.813 28.5218 208.36C28.3294 209.956 28.912 211.525 29.4009 213.038C32.1105 221.418 31.9697 230.458 29.0004 238.75C25.9648 247.046 19.978 253.934 12.1828 258.101C9.22811 259.66 5.64923 261.219 4.95738 264.473C4.07826 268.631 8.53626 271.807 12.5001 273.272C15.7358 274.464 19.0811 275.335 22.4877 275.871C25.4839 276.344 28.6883 276.531 31.4245 275.216C34.608 273.688 36.5483 270.445 38.2285 267.347C44.7776 255.268 52.7937 249.348 57.054 236.281C57.9696 233.464 59.4261 230.112 62.3756 229.826C64.2222 229.649 65.892 230.808 67.4578 231.796C75.0265 236.562 82.9801 231.219 90.0235 225.715C91.6516 224.441 93.0509 222.84 94.8612 221.848C98.7158 219.732 104.334 220.34 106.643 216.598C107.181 215.613 107.555 214.548 107.751 213.443C108.698 209.379 109.645 205.127 108.552 201.083C107.538 197.357 104.911 194.327 103.351 190.766C101.79 187.206 101.707 182.403 104.885 180.21C105.837 179.55 106.966 179.212 107.923 178.531C110.654 176.551 110.716 172.595 110.701 169.222C110.631 168.388 110.774 167.549 111.117 166.785C111.617 166.058 112.275 165.454 113.042 165.017C115.918 162.99 118.602 159.96 119.841 156.623C121.219 152.907 117.687 151.228 114.868 149.139C108.499 144.426 101.262 141.016 93.5711 139.102V139.102Z" fill="black"/>
<path d="M93.0509 138.583C90.5644 137.969 87.9895 137.507 85.4406 137.787C83.0274 138.141 80.6886 138.887 78.5169 139.996C75.0206 141.627 71.6735 143.559 68.5137 145.771C66.3862 147.257 64.3054 148.889 61.8553 149.747C58.1776 151.02 53.9225 150.428 50.5361 152.346C45.7868 155.028 44.7256 161.457 45.4279 166.863C46.1301 172.268 48.0288 177.653 47.1965 183.037C45.922 191.094 38.9255 196.816 32.5064 201.847C30.4829 203.407 28.3137 205.293 28.0016 207.84C27.8091 209.436 28.3918 211.006 28.8807 212.518C31.5903 220.898 31.4495 229.939 28.4802 238.23C25.4446 246.526 19.4578 253.415 11.6626 257.581C8.70791 259.14 5.12902 260.699 4.43718 263.953C3.55806 268.111 8.01606 271.287 11.9799 272.753C15.2156 273.944 18.5609 274.815 21.9675 275.351C24.9637 275.824 28.1681 276.011 30.9043 274.696C34.0878 273.168 36.0281 269.925 37.7083 266.827C44.2574 254.748 52.2735 248.828 56.5338 235.761C57.4494 232.944 58.9059 229.592 61.8553 229.306C63.702 229.129 65.3718 230.288 66.9376 231.276C74.5063 236.042 82.4599 230.699 89.5032 225.195C91.1314 223.921 92.5307 222.321 94.341 221.328C98.1955 219.212 103.814 219.821 106.123 216.078C106.66 215.093 107.035 214.028 107.231 212.923C108.178 208.859 109.125 204.607 108.032 200.564C107.018 196.837 104.391 193.807 102.83 190.246C101.27 186.686 101.187 181.884 104.365 179.69C105.317 179.03 106.446 178.692 107.403 178.011C110.134 176.031 110.196 172.076 110.181 168.703C110.111 167.868 110.254 167.029 110.597 166.265C111.097 165.538 111.755 164.934 112.521 164.498C115.398 162.471 118.082 159.44 119.32 156.104C120.699 152.387 117.167 150.709 114.347 148.619C107.978 143.907 100.741 140.496 93.0509 138.583V138.583Z" fill="#B46D86"/>
<path d="M335.291 366.428C321.168 369.406 279.959 368.143 273.909 363.31C264.65 355.908 266.928 349.333 267.542 347.977H267.407C267.407 347.977 272.609 335.503 267.407 326.147C267.407 326.147 266.887 314.712 255.963 305.877C245.039 297.041 233.075 272.092 233.075 272.092L226.832 285.086C226.832 285.086 217.469 313.616 207.716 326.282C205.768 328.795 204.442 331.732 203.845 334.853C203.2 338.289 200.974 342.618 194.061 343.819L193.702 343.881C188.864 344.687 183.896 344.097 179.381 342.181C174.866 340.265 170.992 337.103 168.213 333.065C163.531 326.365 158.282 317.072 157.091 308.013C156.703 304.967 156.956 301.874 157.835 298.932C158.714 295.989 160.199 293.263 162.194 290.928L162.251 290.861C173.44 277.633 212.288 232.134 218.509 229.483C218.509 229.483 246.6 202.456 257.523 238.838C268.447 275.221 272.089 286.136 272.089 286.136C272.089 286.136 285.151 309.447 288.735 317.322C292.438 325.461 307.846 345.763 309.412 347.816C310.843 348.793 324.612 358.123 329.049 358.123C331.01 358.112 345.466 364.282 335.291 366.428Z" fill="#FFC1CD"/>
<g opacity="0.05">
<path opacity="0.05" d="M269.535 333.471C269.977 329.432 269.737 324.635 267.407 320.43C267.407 320.43 266.887 308.995 255.963 300.159C245.039 291.323 233.075 266.375 233.075 266.375L226.832 279.369C226.832 279.369 217.469 307.899 207.716 320.565C205.769 323.078 204.443 326.014 203.845 329.136C203.2 332.571 200.974 336.901 194.061 338.102L193.702 338.164C188.864 338.969 183.896 338.38 179.381 336.464C174.866 334.548 170.992 331.386 168.213 327.348C163.609 320.726 158.407 311.558 157.138 302.597C156.849 304.564 156.833 306.561 157.091 308.533C158.282 317.587 163.557 326.885 168.213 333.585C170.992 337.623 174.866 340.785 179.381 342.701C183.896 344.617 188.864 345.207 193.702 344.401L194.061 344.339C200.974 343.138 203.2 338.808 203.845 335.373C204.443 332.251 205.769 329.315 207.716 326.802C217.448 314.136 226.832 285.617 226.832 285.617L233.075 272.623C233.075 272.623 245.039 297.571 255.963 306.407C266.887 315.243 267.407 326.677 267.407 326.677C268.548 328.783 269.27 331.09 269.535 333.471V333.471Z" fill="black"/>
</g>
<path opacity="0.05" d="M133.979 266.115C133.979 266.115 156.347 265.596 154.787 258.319Z" fill="black"/>
<path d="M69.835 346.839C90.0258 345.234 110.342 347.19 129.854 352.618C137.376 354.697 144.94 357.348 152.742 357.125C162.319 356.849 171.167 352.327 179.995 348.606C193.915 342.733 208.98 338.611 224.029 339.978C251.723 342.488 276.089 363.097 303.882 362.145C327.702 361.335 349.081 344.645 372.906 345.139C389.073 345.472 404.06 353.725 420.092 355.841C440.671 358.554 461.187 351.028 481.895 350.123C499.865 349.35 517.702 353.533 533.451 362.213C544.843 368.518 556.09 380.815 551.606 393.029C550.237 396.756 547.47 400.072 547.298 404.038C546.913 412.874 558.311 416.616 563.996 423.383C570.993 431.699 568.158 445.405 559.934 452.521C551.71 459.636 539.818 461.112 529.082 459.329C518.345 457.547 508.331 452.936 498.167 449.059C478.838 441.688 458.624 436.883 438.044 434.766C423.811 433.305 409.34 433.144 395.284 435.805C384.761 437.791 374.581 441.33 364.073 443.274C311.503 452.978 259.547 422.312 206.108 422.52C191.09 422.583 176.213 425.088 161.299 426.866C115.07 432.37 68.3265 430.836 21.7906 429.298C17.0829 429.142 11.9903 428.846 8.3698 425.831C1.60738 420.187 4.20831 409.246 8.3698 401.491C15.1946 388.845 24.4956 377.946 31.4557 365.477C39.0088 352.026 55.3946 347.987 69.835 346.839Z" fill="#E84646"/>
<path opacity="0.1" d="M414.88 121.623C434.703 121.623 450.773 105.566 450.773 85.7598C450.773 65.9531 434.703 49.8966 414.88 49.8966C395.057 49.8966 378.987 65.9531 378.987 85.7598C378.987 105.566 395.057 121.623 414.88 121.623Z" fill="#6C63FF"/>
<path d="M428.852 247.726C428.852 247.726 393.672 268.932 458.503 301.583C458.503 301.583 472.787 275.076 456.994 253.47C453.928 249.259 449.424 246.318 444.333 245.203C439.243 244.088 433.92 244.877 429.372 247.42L428.852 247.726Z" fill="#6C63FF"/>
<path d="M429.247 247.279C429.247 247.279 459.356 270.294 458.503 301.583" stroke="#535461" stroke-miterlimit="10"/>
<path d="M456.573 301.448C456.573 301.448 445.55 264.026 458.653 236.526C464.218 225.015 465.896 212.011 463.434 199.467C462.22 193.522 460.463 187.701 458.185 182.076" stroke="#535461" stroke-width="2" stroke-miterlimit="10"/>
<path d="M466.305 164.685C466.305 169.269 457.982 182.559 457.982 182.559C457.982 182.559 449.659 169.269 449.659 164.685C449.584 163.549 449.743 162.41 450.126 161.338C450.51 160.266 451.109 159.284 451.888 158.452C452.666 157.621 453.607 156.959 454.652 156.506C455.698 156.053 456.825 155.819 457.964 155.819C459.104 155.819 460.231 156.053 461.276 156.506C462.321 156.959 463.262 157.621 464.041 158.452C464.819 159.284 465.419 160.266 465.802 161.338C466.185 162.41 466.344 163.549 466.269 164.685H466.305Z" fill="#6C63FF"/>
<path d="M480.044 190.07C477.552 193.916 463.351 200.564 463.351 200.564C463.351 200.564 463.611 184.898 466.102 181.052C467.365 179.359 469.225 178.209 471.304 177.835C473.384 177.462 475.528 177.893 477.302 179.041C479.075 180.189 480.345 181.967 480.854 184.017C481.364 186.066 481.074 188.232 480.044 190.075V190.07Z" fill="#6C63FF"/>
<path d="M479.445 233.454C475.351 235.533 459.735 234.093 459.735 234.093C459.735 234.093 467.866 220.699 471.965 218.636C473.91 217.81 476.096 217.755 478.08 218.481C480.064 219.207 481.698 220.66 482.649 222.545C483.601 224.43 483.799 226.606 483.204 228.632C482.609 230.658 481.265 232.382 479.445 233.454V233.454Z" fill="#6C63FF"/>
<path d="M471.596 266.178C467.908 268.901 452.276 270.133 452.276 270.133C452.276 270.133 458.029 255.58 461.717 252.83C463.495 251.681 465.643 251.252 467.726 251.63C469.809 252.008 471.669 253.165 472.928 254.865C474.187 256.565 474.751 258.681 474.505 260.781C474.258 262.882 473.22 264.81 471.601 266.172L471.596 266.178Z" fill="#6C63FF"/>
<path d="M445.914 201.452C449.202 204.644 464.532 207.955 464.532 207.955C464.532 207.955 460.776 192.741 457.488 189.55C456.725 188.704 455.797 188.023 454.76 187.551C453.724 187.078 452.601 186.823 451.461 186.801C450.322 186.78 449.19 186.992 448.136 187.426C447.083 187.859 446.129 188.504 445.335 189.321C444.541 190.137 443.923 191.108 443.52 192.173C443.116 193.238 442.936 194.375 442.991 195.512C443.045 196.649 443.332 197.764 443.835 198.785C444.338 199.807 445.046 200.715 445.914 201.452V201.452Z" fill="#6C63FF"/>
<path d="M437.217 239.836C441.31 241.915 456.926 240.476 456.926 240.476C456.926 240.476 448.791 227.082 444.692 225.018C443.711 224.44 442.621 224.07 441.491 223.929C440.361 223.789 439.214 223.882 438.121 224.202C437.028 224.523 436.013 225.064 435.138 225.792C434.262 226.521 433.546 227.421 433.033 228.437C432.521 229.453 432.222 230.563 432.156 231.699C432.09 232.835 432.258 233.973 432.649 235.042C433.041 236.11 433.648 237.087 434.433 237.912C435.217 238.736 436.163 239.392 437.211 239.836H437.217Z" fill="#6C63FF"/>
<path d="M433.887 278.304C437.576 281.027 453.207 282.259 453.207 282.259C453.207 282.259 447.454 267.706 443.766 264.956C442.896 264.224 441.886 263.678 440.797 263.351C439.708 263.025 438.563 262.924 437.434 263.057C436.304 263.189 435.214 263.551 434.23 264.121C433.246 264.69 432.39 265.455 431.713 266.369C431.037 267.282 430.555 268.324 430.297 269.43C430.039 270.537 430.011 271.685 430.214 272.802C430.417 273.92 430.848 274.985 431.479 275.93C432.109 276.875 432.928 277.681 433.882 278.298L433.887 278.304Z" fill="#6C63FF"/>
<path opacity="0.25" d="M466.305 164.685C466.305 169.269 457.982 182.559 457.982 182.559C457.982 182.559 449.659 169.269 449.659 164.685C449.584 163.549 449.743 162.41 450.126 161.338C450.51 160.266 451.109 159.284 451.888 158.452C452.666 157.621 453.607 156.959 454.652 156.506C455.698 156.053 456.825 155.819 457.964 155.819C459.104 155.819 460.231 156.053 461.276 156.506C462.321 156.959 463.262 157.621 464.041 158.452C464.819 159.284 465.419 160.266 465.802 161.338C466.185 162.41 466.344 163.549 466.269 164.685H466.305Z" fill="black"/>
<path opacity="0.25" d="M480.044 190.07C477.552 193.916 463.351 200.564 463.351 200.564C463.351 200.564 463.611 184.898 466.102 181.052C467.365 179.359 469.225 178.209 471.304 177.835C473.384 177.462 475.528 177.893 477.302 179.041C479.075 180.189 480.345 181.967 480.854 184.017C481.364 186.066 481.074 188.232 480.044 190.075V190.07Z" fill="black"/>
<path opacity="0.25" d="M479.445 233.454C475.351 235.533 459.735 234.093 459.735 234.093C459.735 234.093 467.866 220.699 471.965 218.636C473.91 217.81 476.096 217.755 478.08 218.481C480.064 219.207 481.698 220.66 482.649 222.545C483.601 224.43 483.799 226.606 483.204 228.632C482.609 230.658 481.265 232.382 479.445 233.454V233.454Z" fill="black"/>
<path opacity="0.25" d="M471.596 266.178C467.908 268.901 452.276 270.133 452.276 270.133C452.276 270.133 458.029 255.58 461.717 252.83C463.495 251.681 465.643 251.252 467.726 251.63C469.809 252.008 471.669 253.165 472.928 254.865C474.187 256.565 474.751 258.681 474.505 260.781C474.258 262.882 473.22 264.81 471.601 266.172L471.596 266.178Z" fill="black"/>
<path opacity="0.25" d="M445.914 201.452C449.202 204.644 464.532 207.955 464.532 207.955C464.532 207.955 460.776 192.741 457.488 189.55C456.725 188.704 455.797 188.023 454.76 187.551C453.724 187.078 452.601 186.823 451.461 186.801C450.322 186.78 449.19 186.992 448.136 187.426C447.083 187.859 446.129 188.504 445.335 189.321C444.541 190.137 443.923 191.108 443.52 192.173C443.116 193.238 442.936 194.375 442.991 195.512C443.045 196.649 443.332 197.764 443.835 198.785C444.338 199.807 445.046 200.715 445.914 201.452V201.452Z" fill="black"/>
<path opacity="0.25" d="M437.217 239.836C441.31 241.915 456.926 240.476 456.926 240.476C456.926 240.476 448.791 227.082 444.692 225.018C443.711 224.44 442.621 224.07 441.491 223.929C440.361 223.789 439.214 223.882 438.121 224.202C437.028 224.523 436.013 225.064 435.138 225.792C434.262 226.521 433.546 227.421 433.033 228.437C432.521 229.453 432.222 230.563 432.156 231.699C432.09 232.835 432.258 233.973 432.649 235.042C433.041 236.11 433.648 237.087 434.433 237.912C435.217 238.736 436.163 239.392 437.211 239.836H437.217Z" fill="black"/>
<path opacity="0.25" d="M433.887 278.304C437.576 281.027 453.207 282.259 453.207 282.259C453.207 282.259 447.454 267.706 443.766 264.956C442.896 264.224 441.886 263.678 440.797 263.351C439.708 263.025 438.563 262.924 437.434 263.057C436.304 263.189 435.214 263.551 434.23 264.121C433.246 264.69 432.39 265.455 431.713 266.369C431.037 267.282 430.555 268.324 430.297 269.43C430.039 270.537 430.011 271.685 430.214 272.802C430.417 273.92 430.848 274.985 431.479 275.93C432.109 276.875 432.928 277.681 433.882 278.298L433.887 278.304Z" fill="black"/>
<path d="M488.325 314.115C488.325 314.115 477.302 276.692 490.406 249.192C495.97 237.681 497.648 224.678 495.186 212.133C493.972 206.188 492.215 200.367 489.937 194.742" stroke="#535461" stroke-width="2" stroke-miterlimit="10"/>
<path d="M498.068 177.351C498.068 181.936 489.745 195.226 489.745 195.226C489.745 195.226 481.422 181.936 481.422 177.351C481.562 175.245 482.497 173.271 484.039 171.829C485.581 170.387 487.615 169.585 489.727 169.585C491.839 169.585 493.872 170.387 495.414 171.829C496.956 173.271 497.892 175.245 498.032 177.351H498.068Z" fill="#6C63FF"/>
<path d="M511.796 202.736C509.304 206.582 495.103 213.23 495.103 213.23C495.103 213.23 495.363 197.565 497.855 193.718C498.41 192.725 499.163 191.856 500.068 191.165C500.973 190.474 502.011 189.976 503.116 189.702C504.221 189.428 505.371 189.383 506.494 189.571C507.618 189.758 508.691 190.174 509.646 190.793C510.602 191.412 511.421 192.22 512.052 193.167C512.682 194.115 513.112 195.182 513.313 196.302C513.515 197.422 513.484 198.571 513.223 199.679C512.962 200.786 512.476 201.829 511.796 202.741V202.736Z" fill="#6C63FF"/>
<path d="M511.197 246.115C507.104 248.194 491.488 246.754 491.488 246.754C491.488 246.754 499.623 233.36 503.722 231.297C504.704 230.716 505.794 230.343 506.925 230.201C508.057 230.059 509.206 230.151 510.3 230.471C511.395 230.791 512.412 231.333 513.288 232.062C514.164 232.791 514.881 233.692 515.395 234.71C515.908 235.727 516.207 236.839 516.272 237.977C516.337 239.115 516.168 240.253 515.774 241.323C515.381 242.392 514.771 243.369 513.984 244.194C513.197 245.018 512.248 245.672 511.197 246.115Z" fill="#6C63FF"/>
<path d="M503.343 278.86C499.655 281.583 484.023 282.815 484.023 282.815C484.023 282.815 489.776 268.262 493.464 265.512C495.242 264.363 497.39 263.934 499.473 264.312C501.556 264.69 503.416 265.847 504.675 267.547C505.934 269.247 506.498 271.363 506.252 273.463C506.005 275.564 504.967 277.492 503.348 278.854L503.343 278.86Z" fill="#6C63FF"/>
<path d="M477.661 214.119C480.949 217.31 496.279 220.621 496.279 220.621C496.279 220.621 492.523 205.408 489.235 202.216C488.472 201.37 487.544 200.69 486.507 200.217C485.471 199.744 484.348 199.489 483.208 199.468C482.069 199.446 480.937 199.659 479.883 200.092C478.83 200.526 477.876 201.171 477.082 201.987C476.288 202.804 475.67 203.775 475.267 204.84C474.863 205.905 474.683 207.041 474.738 208.179C474.792 209.316 475.079 210.43 475.582 211.452C476.085 212.474 476.793 213.381 477.661 214.119V214.119Z" fill="#6C63FF"/>
<path d="M468.969 252.503C473.063 254.582 488.679 253.142 488.679 253.142C488.679 253.142 480.543 239.748 476.444 237.685C474.499 236.859 472.313 236.804 470.329 237.53C468.344 238.256 466.711 239.709 465.759 241.594C464.808 243.479 464.609 245.655 465.204 247.681C465.799 249.707 467.143 251.431 468.964 252.503H468.969Z" fill="#6C63FF"/>
<path d="M465.64 290.97C469.328 293.694 484.959 294.925 484.959 294.925C484.959 294.925 479.206 280.372 475.518 277.623C474.648 276.891 473.638 276.344 472.549 276.018C471.46 275.691 470.315 275.591 469.186 275.723C468.056 275.855 466.966 276.218 465.982 276.787C464.999 277.357 464.142 278.122 463.465 279.035C462.789 279.948 462.307 280.99 462.049 282.097C461.791 283.203 461.763 284.351 461.966 285.469C462.17 286.587 462.6 287.651 463.231 288.596C463.862 289.542 464.68 290.348 465.634 290.965L465.64 290.97Z" fill="#6C63FF"/>
<path opacity="0.1" d="M268.676 67.35H265.602C266.173 67.35 266.721 67.1233 267.125 66.7198C267.529 66.3162 267.755 65.7689 267.755 65.1982C267.755 64.6275 267.529 64.0802 267.125 63.6767C266.721 63.2732 266.173 63.0464 265.602 63.0464H240.695C240.124 63.0464 239.577 63.2732 239.173 63.6767C238.769 64.0802 238.542 64.6275 238.542 65.1982C238.542 65.7689 238.769 66.3162 239.173 66.7198C239.577 67.1233 240.124 67.35 240.695 67.35H243.77C243.199 67.35 242.651 67.5767 242.247 67.9803C241.843 68.3838 241.616 68.9311 241.616 69.5018C241.616 70.0725 241.843 70.6198 242.247 71.0234C242.651 71.4269 243.199 71.6536 243.77 71.6536H239.463C238.891 71.6536 238.344 71.8803 237.94 72.2839C237.536 72.6874 237.309 73.2347 237.309 73.8054C237.309 74.3761 237.536 74.9234 237.94 75.327C238.344 75.7305 238.891 75.9572 239.463 75.9572H264.369C264.94 75.9572 265.488 75.7305 265.892 75.327C266.296 74.9234 266.523 74.3761 266.523 73.8054C266.523 73.2347 266.296 72.6874 265.892 72.2839C265.488 71.8803 264.94 71.6536 264.369 71.6536H268.676C269.247 71.6536 269.795 71.4269 270.199 71.0234C270.603 70.6198 270.83 70.0725 270.83 69.5018C270.83 68.9311 270.603 68.3838 270.199 67.9803C269.795 67.5767 269.247 67.35 268.676 67.35V67.35Z" fill="#6C63FF"/>
<path opacity="0.1" d="M459.585 111.01H456.51C457.081 111.01 457.629 110.783 458.033 110.379C458.437 109.976 458.664 109.428 458.664 108.858C458.664 108.287 458.437 107.74 458.033 107.336C457.629 106.933 457.081 106.706 456.51 106.706H431.604C431.033 106.706 430.485 106.933 430.081 107.336C429.677 107.74 429.45 108.287 429.45 108.858C429.45 109.428 429.677 109.976 430.081 110.379C430.485 110.783 431.033 111.01 431.604 111.01H434.678C434.107 111.01 433.559 111.236 433.155 111.64C432.751 112.043 432.524 112.591 432.524 113.161C432.524 113.732 432.751 114.279 433.155 114.683C433.559 115.086 434.107 115.313 434.678 115.313H430.371C429.8 115.313 429.252 115.54 428.848 115.943C428.444 116.347 428.217 116.894 428.217 117.465C428.217 118.036 428.444 118.583 428.848 118.986C429.252 119.39 429.8 119.617 430.371 119.617H455.277C455.849 119.617 456.396 119.39 456.8 118.986C457.204 118.583 457.431 118.036 457.431 117.465C457.431 116.894 457.204 116.347 456.8 115.943C456.396 115.54 455.849 115.313 455.277 115.313H459.585C460.156 115.313 460.703 115.086 461.107 114.683C461.511 114.279 461.738 113.732 461.738 113.161C461.738 112.591 461.511 112.043 461.107 111.64C460.703 111.236 460.156 111.01 459.585 111.01V111.01Z" fill="#6C63FF"/>
<path opacity="0.1" d="M297.286 124.003H294.212C294.783 124.003 295.331 123.777 295.735 123.373C296.139 122.97 296.366 122.422 296.366 121.852C296.366 121.281 296.139 120.734 295.735 120.33C295.331 119.927 294.783 119.7 294.212 119.7H269.306C268.734 119.7 268.187 119.927 267.783 120.33C267.379 120.734 267.152 121.281 267.152 121.852C267.152 122.422 267.379 122.97 267.783 123.373C268.187 123.777 268.734 124.003 269.306 124.003H272.38C271.809 124.003 271.261 124.23 270.857 124.634C270.453 125.037 270.226 125.585 270.226 126.155C270.226 126.726 270.453 127.273 270.857 127.677C271.261 128.08 271.809 128.307 272.38 128.307H268.073C267.502 128.307 266.954 128.534 266.55 128.937C266.146 129.341 265.919 129.888 265.919 130.459C265.919 131.03 266.146 131.577 266.55 131.98C266.954 132.384 267.502 132.611 268.073 132.611H292.979C293.55 132.611 294.098 132.384 294.502 131.98C294.906 131.577 295.133 131.03 295.133 130.459C295.133 129.888 294.906 129.341 294.502 128.937C294.098 128.534 293.55 128.307 292.979 128.307H297.286C297.858 128.307 298.405 128.08 298.809 127.677C299.213 127.273 299.44 126.726 299.44 126.155C299.44 125.585 299.213 125.037 298.809 124.634C298.405 124.23 297.858 124.003 297.286 124.003V124.003Z" fill="#6C63FF"/>
</g>
<defs>
<linearGradient id="paint0_linear" x1="173.258" y1="96.7995" x2="173.258" y2="95.7444" gradientUnits="userSpaceOnUse">
<stop stop-color="#808080" stop-opacity="0.25"/>
<stop offset="0.54" stop-color="#808080" stop-opacity="0.12"/>
<stop offset="1" stop-color="#808080" stop-opacity="0.1"/>
</linearGradient>
<linearGradient id="paint1_linear" x1="269.563" y1="295.542" x2="269.563" y2="293.422" gradientUnits="userSpaceOnUse">
<stop stop-color="#808080" stop-opacity="0.25"/>
<stop offset="0.54" stop-color="#808080" stop-opacity="0.12"/>
<stop offset="1" stop-color="#808080" stop-opacity="0.1"/>
</linearGradient>
<linearGradient id="paint2_linear" x1="182272" y1="205817" x2="182272" y2="49304.5" gradientUnits="userSpaceOnUse">
<stop stop-color="#808080" stop-opacity="0.25"/>
<stop offset="0.54" stop-color="#808080" stop-opacity="0.12"/>
<stop offset="1" stop-color="#808080" stop-opacity="0.1"/>
</linearGradient>
<linearGradient id="paint3_linear" x1="7080.93" y1="12515.2" x2="7080.93" y2="11185.8" gradientUnits="userSpaceOnUse">
<stop stop-color="#808080" stop-opacity="0.25"/>
<stop offset="0.54" stop-color="#808080" stop-opacity="0.12"/>
<stop offset="1" stop-color="#808080" stop-opacity="0.1"/>
</linearGradient>
<clipPath id="clip0">
<rect width="582" height="460" fill="white"/>
</clipPath>
</defs>
</svg>
